<mxfile host="app.diagrams.net" modified="2020-09-20T15:04:21.573Z" agent="5.0 (Windows NT 10.0; Win64; x64) AppleWebKit/537.36 (KHTML, like Gecko) Chrome/85.0.4183.102 Safari/537.36" etag="clThRdO7bXlyC9k--8iB" version="13.7.3" type="github">
  <diagram name="Page-1" id="e3a06f82-3646-2815-327d-82caf3d4e204">
    <mxGraphModel dx="1422" dy="794" grid="1" gridSize="10" guides="1" tooltips="1" connect="1" arrows="1" fold="1" page="1" pageScale="1.5" pageWidth="1169" pageHeight="826" background="none" math="0" shadow="0">
      <root>
        <mxCell id="0" style=";html=1;" />
        <mxCell id="1" style=";html=1;" parent="0" />
        <mxCell id="6a7d8f32e03d9370-32" style="edgeStyle=none;rounded=0;html=1;startSize=10;endSize=10;jettySize=auto;orthogonalLoop=1;fontSize=14;endArrow=none;endFill=0;strokeWidth=2;" parent="1" source="uW-Kh_5QVIRXYQqYzv6B-1" target="uW-Kh_5QVIRXYQqYzv6B-2" edge="1">
          <mxGeometry relative="1" as="geometry">
            <mxPoint x="451" y="204.25418994413405" as="sourcePoint" />
            <mxPoint x="637" y="201.13687150837984" as="targetPoint" />
          </mxGeometry>
        </mxCell>
        <mxCell id="6a7d8f32e03d9370-43" style="edgeStyle=none;rounded=0;html=1;startSize=10;endSize=10;jettySize=auto;orthogonalLoop=1;fontSize=14;endArrow=none;endFill=0;strokeWidth=2;exitX=1.002;exitY=0.582;exitDx=0;exitDy=0;exitPerimeter=0;" parent="1" source="uW-Kh_5QVIRXYQqYzv6B-2" target="6a7d8f32e03d9370-15" edge="1">
          <mxGeometry relative="1" as="geometry">
            <mxPoint x="713" y="201.1255144032922" as="sourcePoint" />
            <mxPoint x="759" y="201.88271604938268" as="targetPoint" />
          </mxGeometry>
        </mxCell>
        <mxCell id="uW-Kh_5QVIRXYQqYzv6B-5" value="" style="edgeStyle=orthogonalEdgeStyle;rounded=0;orthogonalLoop=1;jettySize=auto;html=1;" edge="1" parent="1" source="6a7d8f32e03d9370-15" target="uW-Kh_5QVIRXYQqYzv6B-4">
          <mxGeometry relative="1" as="geometry" />
        </mxCell>
        <mxCell id="uW-Kh_5QVIRXYQqYzv6B-6" value="" style="edgeStyle=orthogonalEdgeStyle;rounded=0;orthogonalLoop=1;jettySize=auto;html=1;" edge="1" parent="1" source="6a7d8f32e03d9370-15" target="uW-Kh_5QVIRXYQqYzv6B-3">
          <mxGeometry relative="1" as="geometry" />
        </mxCell>
        <mxCell id="6a7d8f32e03d9370-15" value="K8S集群" style="verticalLabelPosition=top;aspect=fixed;html=1;verticalAlign=bottom;strokeColor=none;shape=mxgraph.citrix.cache_server;fillColor=#66B2FF;gradientColor=#0066CC;fontSize=14;labelPosition=center;align=center;" parent="1" vertex="1">
          <mxGeometry x="834" y="151.75" width="71" height="97.5" as="geometry" />
        </mxCell>
        <mxCell id="6a7d8f32e03d9370-31" value="" style="verticalLabelPosition=bottom;aspect=fixed;html=1;verticalAlign=top;strokeColor=none;shape=mxgraph.citrix.site;fillColor=#66B2FF;gradientColor=#0066CC;fontSize=14;" parent="1" vertex="1">
          <mxGeometry x="1409" y="995" width="107" height="101" as="geometry" />
        </mxCell>
        <mxCell id="uW-Kh_5QVIRXYQqYzv6B-2" value="支付终端" style="points=[];aspect=fixed;html=1;align=center;shadow=0;dashed=0;image;image=img/lib/allied_telesis/computer_and_terminals/POS_keypad.svg;" vertex="1" parent="1">
          <mxGeometry x="700" y="173.85" width="71.84" height="53.3" as="geometry" />
        </mxCell>
        <mxCell id="uW-Kh_5QVIRXYQqYzv6B-3" value="mysql数据库服务器" style="verticalLabelPosition=top;aspect=fixed;html=1;verticalAlign=bottom;strokeColor=none;shape=mxgraph.citrix.cache_server;fillColor=#66B2FF;gradientColor=#0066CC;fontSize=14;labelPosition=center;align=center;" vertex="1" parent="1">
          <mxGeometry x="1020" y="200" width="71" height="97.5" as="geometry" />
        </mxCell>
        <mxCell id="uW-Kh_5QVIRXYQqYzv6B-4" value="redis服务器" style="verticalLabelPosition=top;aspect=fixed;html=1;verticalAlign=bottom;strokeColor=none;shape=mxgraph.citrix.cache_server;fillColor=#66B2FF;gradientColor=#0066CC;fontSize=14;labelPosition=center;align=center;" vertex="1" parent="1">
          <mxGeometry x="1020" y="70" width="71" height="97.5" as="geometry" />
        </mxCell>
        <mxCell id="uW-Kh_5QVIRXYQqYzv6B-1" value="用户" style="outlineConnect=0;fontColor=#232F3E;gradientColor=none;fillColor=#232F3E;strokeColor=none;dashed=0;verticalLabelPosition=bottom;verticalAlign=top;align=center;html=1;fontSize=12;fontStyle=0;aspect=fixed;pointerEvents=1;shape=mxgraph.aws4.user;" vertex="1" parent="1">
          <mxGeometry x="570" y="161.5" width="78" height="78" as="geometry" />
        </mxCell>
      </root>
    </mxGraphModel>
  </diagram>
</mxfile>
